<svg width="60" height="60" viewBox="0 0 60 60" fill="none" xmlns="http://www.w3.org/2000/svg">
<circle cx="29.9891" cy="29.9891" r="29.9891" transform="rotate(180 29.9891 29.9891)" fill="#CE2E49"/>
<path d="M39.7432 29.1805C39.7323 28.6633 39.5486 28.1688 39.2273 27.7927L27.8999 14.7313C27.4305 14.1945 26.7381 13.9751 26.0829 14.1551C25.4278 14.3351 24.9089 14.888 24.7213 15.6056C24.5333 16.3235 24.7048 17.0976 25.1713 17.6376L35.2446 29.2464L25.1713 40.8553L25.1713 40.8549C24.7048 41.395 24.5333 42.1694 24.7213 42.887C24.9089 43.6045 25.4278 44.1574 26.0829 44.3374C26.7381 44.5178 27.4304 44.2981 27.8999 43.7613L39.2273 30.6998C39.5769 30.2913 39.763 29.7439 39.7432 29.1813L39.7432 29.1805Z" fill="white"/>
</svg>
