<svg id="Layer_1" data-name="Layer 1" xmlns="http://www.w3.org/2000/svg" viewBox="0 0 1061.42 685.08"><path d="M541.31,689.66c-6.11-6.82-11.28-12.37-16.22-18.13q-189.73-221.5-379.4-443c-31.12-36.35-76.81-41.33-110.9-11.91-32.62,28.14-34,75-3.73,110.34Q254.62,588.08,478,849.42c37.33,43.71,87.81,44.39,125.53.6q87.66-101.79,174.88-203.95Q914.61,487,1050.82,327.87c17.22-20.11,24-43.08,17.36-68.95-7.76-30-27.15-49-57.52-55.82-30.78-7-55.55,4.09-75.42,27.24Q776.36,415.44,617.7,600.71C592.51,630.12,567.25,659.46,541.31,689.66Z" transform="translate(-9.29 -197.46)"/><path d="M541.31,689.66c25.94-30.2,51.2-59.55,76.4-88.94Q776.47,415.53,935.24,230.35c19.87-23.15,44.64-34.21,75.42-27.24,30.37,6.87,49.75,25.79,57.52,55.82,6.69,25.87-.14,48.84-17.36,68.95Q914.59,487,778.37,646.07,691,748.09,603.49,850c-37.71,43.79-88.19,43.11-125.53-.59Q254.69,588,31.05,326.92C.76,291.54,2.17,244.73,34.78,216.58c34.09-29.42,79.78-24.44,110.9,11.91Q335.34,450,525.09,671.53C530,677.29,535.2,682.85,541.31,689.66Z" transform="translate(-9.29 -197.46)"/></svg>
