<svg id="Layer_1" data-name="Layer 1" xmlns="http://www.w3.org/2000/svg" viewBox="0 0 1033.26 1021.99"><path d="M1056.63,969.74c-6.83,15.15-11.27,32.08-21,45.11-23.91,32.17-58.49,39.2-96.42,34.47-24.74-3.08-44.55-15.29-62-32.74q-164.6-165-329.45-329.72c-2.81-2.81-4.65-6.59-7-9.92l-4.45-.19c-2.25,3.38-4,7.25-6.82,10.07q-166.81,167.05-333.8,333.93c-33.48,33.47-90.9,40.09-131.23,15.18C21,1009,9.84,944.46,41.51,900.82A147.41,147.41,0,0,1,56.8,883.43q166.84-167,333.89-333.84c3-3,7.1-5.07,10.68-7.57.13-1.63.25-3.27.38-4.9-3.41-2.15-7.37-3.75-10.15-6.53Q225.22,364.5,59.06,198.23C30.9,170.09,21.12,136.61,32.69,98.62s38.37-61.16,77.42-68c32.42-5.67,61.3,3.54,84.91,27Q360.73,222.21,526.22,387c4.24,4.22,7.53,9.39,11.26,14.12l4.85.54c2.38-3.67,4.2-7.9,7.23-10.93Q713.84,226.15,878.37,61.81c54.15-54,143.1-33.38,164.71,38.6,10.89,36.27,3.49,69.41-23.63,96.6q-165.63,166.1-331.7,331.75c-2.83,2.83-6.31,5-11.83,9.32,5.65,4.62,9.77,7.44,13.25,10.9q158.57,157.46,317.14,314.9c22.15,21.89,43.77,43.57,50.31,75.58Q1056.64,954.61,1056.63,969.74Z" transform="translate(-23.37 -29.01)"/></svg>
