<svg id="Layer_1" data-name="Layer 1" xmlns="http://www.w3.org/2000/svg" viewBox="0 0 1017.99 1018.3"><path d="M1049,540c-.08,281-230.13,510.77-509.62,509.1C257.62,1047.45,30.87,820.33,31,540,31.14,259,261.28,29.11,540.68,30.86,822.54,32.63,1049.07,259.54,1049,540ZM540.34,946.94c225-.81,407.93-184.26,406.48-407.58-1.46-225.26-182-405.71-406.57-406.29-223.94-.58-407.12,182.56-407.06,407S316.64,947.74,540.34,946.94Z" transform="translate(-31 -30.85)"/><path d="M488.93,463.66c0-41.35-.23-82.7.09-124,.22-28.63,15.41-47.62,41.55-53.29,26.63-5.78,55,13.34,59.36,40.2A96.07,96.07,0,0,1,591.05,342q.11,121.67,0,243.33c0,29.58-14.13,49-39.29,55.12C522.19,647.59,492,627.52,490,597.19c-1.87-27.71-.87-55.62-1-83.44C488.84,497.06,488.92,480.36,488.93,463.66Z" transform="translate(-31 -30.85)"/><path d="M539.73,692.76c28.41-.08,50.72,21.8,51.15,50.16.44,28.87-22.13,51.42-51.2,51.16-28.82-.26-50.65-22.11-50.57-50.62A50.42,50.42,0,0,1,539.73,692.76Z" transform="translate(-31 -30.85)"/></svg>
