<svg width="36" height="36" viewBox="0 0 36 36" fill="none" xmlns="http://www.w3.org/2000/svg">
<circle cx="18" cy="18" r="18" transform="rotate(180 18 18)" fill="#CE2E49"/>
<path d="M18 12C17.5091 12 17.1112 12.3979 17.1112 12.8888V17.1112H12.8888C12.3979 17.1112 12 17.5091 12 18C12 18.4909 12.3979 18.8888 12.8888 18.8888H17.1112V23.1112C17.1112 23.6021 17.5091 24 18 24C18.4909 24 18.8888 23.6021 18.8888 23.1112V18.8888H23.1112C23.6021 18.8888 24 18.4909 24 18C24 17.5091 23.6021 17.1112 23.1112 17.1112H18.8888V12.8888C18.8888 12.3979 18.4909 12 18 12Z" fill="white"/>
</svg>
